<?xml version="1.0" encoding="UTF-8"?>
<svg id="Layer_2" data-name="Layer 2" xmlns="http://www.w3.org/2000/svg" viewBox="0 0 1419.6 653.5333">
  <defs>
    <style>
      .cls-1 {
        fill: none;
      }

      .cls-2 {
        fill: rgba(183, 183, 183, .25);
      }
    </style>
  </defs>
  <rect class="cls-2" x="624.5" y="107.0332" width="362.3" height="419.9"/>
  <path d="M175.8,653.5333c-2.5,0-4.5-2-4.5-4.5V71.0333c0-2.5,2-4.5,4.5-4.5s4.5,2,4.5,4.5V649.0333c0,2.5-2,4.5-4.5,4.5Z"/>
  <path d="M1261.8,653.5333H4.5c-2.5,0-4.5-2-4.5-4.5s2-4.5,4.5-4.5H1261.8c2.5,0,4.5,2,4.5,4.5s-2,4.5-4.5,4.5Z"/>
  <path d="M1415.1,653.5333h-88c-2.5,0-4.5-2-4.5-4.5s2-4.5,4.5-4.5h88c2.5,0,4.5,2,4.5,4.5s-2,4.5-4.5,4.5Z"/>
  <path d="M683.8,653.5333c-2.5,0-4.5-2-4.5-4.5v-52c0-2.5,2-4.5,4.5-4.5s4.5,2,4.5,4.5v52c0,2.5-2,4.5-4.5,4.5Z"/>
  <path d="M986.8,653.5333c-2.5,0-4.5-2-4.5-4.5V107.0332c0-2.5,2-4.5,4.5-4.5s4.5,2,4.5,4.5V648.9333c0,2.6-2,4.6-4.5,4.6Z"/>
  <path d="M986.8,601.5333h-322c-12.4,0-22.5-10.1-22.5-22.5v-25c0-2.5,2-4.5,4.5-4.5h340c2.5,0,4.5,2,4.5,4.5v43c0,2.5-2,4.5-4.5,4.5Zm-335.5-43v20.5c0,7.4,6.1,13.5,13.5,13.5h317.5v-34h-331Z"/>
  <path d="M1010.5,653.5333c-2.5,0-4.5-2-4.5-4.5V89.0333c0-2.5,2-4.5,4.5-4.5s4.5,2,4.5,4.5V649.0333c0,2.5-2,4.5-4.5,4.5Z"/>
  <path d="M389.8,619.5333h-44.7c-2.5,0-4.5-2-4.5-4.5V136.0333c0-2.5,2-4.5,4.5-4.5h44.7c2.5,0,4.5,2,4.5,4.5v479c0,2.5-2,4.5-4.5,4.5Zm-40.2-9h35.7V140.5333h-35.7v470Z"/>
  <path d="M345.1,653.5333c-2.5,0-4.5-2-4.5-4.5v-34c0-2.5,2-4.5,4.5-4.5s4.5,2,4.5,4.5v34c0,2.5-2,4.5-4.5,4.5Z"/>
  <path d="M389.8,653.5333c-2.5,0-4.5-2-4.5-4.5v-34c0-2.5,2-4.5,4.5-4.5s4.5,2,4.5,4.5v34c0,2.5-2,4.5-4.5,4.5Z"/>
  <path d="M847.1,653.5333c-2.5,0-4.5-2-4.5-4.5v-52c0-2.5,2-4.5,4.5-4.5s4.5,2,4.5,4.5v52c0,2.5-2,4.5-4.5,4.5Z"/>
  <path d="M389.8,140.5332c-2.5,0-4.5-2-4.5-4.5v-47c0-2.5,2-4.5,4.5-4.5s4.5,2,4.5,4.5v47c0,2.5-2,4.5-4.5,4.5Z"/>
  <path d="M345.1,140.5332c-2.5,0-4.5-2-4.5-4.5v-47c0-2.5,2-4.5,4.5-4.5s4.5,2,4.5,4.5v47c0,2.5-2,4.5-4.5,4.5Z"/>
  <path d="M986.8,531.5333h-362.3c-2.5,0-4.5-2-4.5-4.5v-210c0-2.5,2-4.5,4.5-4.5h362.3c2.5,0,4.5,2,4.5,4.5v210c0,2.5-2,4.5-4.5,4.5Zm-357.8-9h353.3v-201h-353.3v201Z"/>
  <g>
    <polygon points="1081.8 632.0333 1079.8 641.2333 1219.8 641.2333 1217.8 632.0333 1081.8 632.0333"/>
    <path d="M1219.8,645.7333h-140c-1.4,0-2.6-.6-3.5-1.7-.9-1.1-1.2-2.4-.9-3.8l2-9.2c.4-2.1,2.3-3.5,4.4-3.5h136c2.1,0,3.9,1.5,4.4,3.5l2,9.2c.3,1.3,0,2.7-.9,3.8-.8,1.1-2.1,1.7-3.5,1.7Zm-134.4-9h128.8v-.2h-128.7l-.1001,.2Z"/>
  </g>
  <path d="M1217.8,449.1332h-136c-2.5,0-4.5-2-4.5-4.5s2-4.5,4.5-4.5h136c2.5,0,4.5,2,4.5,4.5s-2,4.5-4.5,4.5Z"/>
  <path d="M1070.6,75.5333H289.1c-2.5,0-4.5-2-4.5-4.5v-18c0-1.2,.5-2.3,1.3-3.2,.8-.8,2-1.3,3.2-1.3h781.5001c2.5,0,4.5,2,4.5,4.5v18c0,2.5-2,4.5-4.5,4.5Zm-777.0001-9h772.5001v-9H293.6v9Z"/>
  <path d="M1047.9,111.5332H311.9c-2.5,0-4.5-2-4.5-4.5,0-11.1-12.5-26.8-20.7-32.3-1.6-1.1-2.4-3.2-1.8-5,.6-1.9,2.3-3.2,4.3-3.2h781.4999c2,0,3.7,1.3,4.3,3.2,.6,1.9-.2,3.9-1.8,5-8.3,5.5-20.7,21.3-20.7,32.3-.1,2.5-2.1,4.5-4.6,4.5Zm-731.9-9h727.8c1.7-9.5,8.2-19.6,15-27.1H301c6.8,7.5,13.3,17.6,15,27.1Z"/>
  <path d="M1217.8,636.5333h-136c-1.3,0-2.5-.5-3.3-1.4-.9-.9-1.3-2.2-1.2-3.4,.1-1.4,10.9-141.6,.1-185.9-1.5-6.4-11.7-23.6-15.5-29.7-.9-1.4-.9-3.1-.1-4.6,.8-1.4,2.3-2.3,3.9-2.3h168c1.6,0,3.1,.9,3.9,2.3s.8,3.2-.1,4.6c-3.8,6.1-13.9,23.3-15.5,29.7-10.8,44.3,0,184.5,.1,185.9,.1,1.2-.3,2.5-1.2,3.4-.6001,.9-1.8,1.4-3.1001,1.4Zm-131.2-9h126.3c-1.9-25.7-9.6-142.5,.5-183.9,1.5-6.1,8-17.8,12.4-25.4h-152.1c4.4,7.6,10.9,19.3,12.4,25.4,10.0999,41.4,2.3998,158.2,.4999,183.9Z"/>
  <g>
    <line class="cls-1" x1="653.1" y1="350.3333" x2="677.8" y2="375.5333"/>
    <path d="M677.8,380.0333c-1.2,0-2.3-.5-3.2-1.4l-24.7-25.2c-1.7-1.8-1.7-4.6,.1-6.4,1.8-1.7,4.6-1.7,6.4,.1l24.7,25.2c1.7,1.8,1.7,4.6-.1,6.4-.9,.9-2.1,1.3-3.2,1.3Z"/>
  </g>
  <g>
    <line class="cls-1" x1="683.2" y1="350.3333" x2="729.6" y2="397.2332"/>
    <path d="M729.6,401.7332c-1.2,0-2.3-.4-3.2-1.3l-46.4-46.9c-1.7-1.8-1.7-4.6,0-6.4,1.8-1.7,4.6-1.7,6.4,0l46.4,46.9c1.7,1.8,1.7,4.6,0,6.4-.9,.9-2.1,1.3-3.2,1.3Z"/>
  </g>
  <path d="M986.8,321.5333h-362.3c-2.5,0-4.5-2-4.5-4.5V107.0333c0-2.5,2-4.5,4.5-4.5h362.3c2.5,0,4.5,2,4.5,4.5v210c0,2.5-2,4.5-4.5,4.5Zm-357.8-9h353.3V111.5333h-353.3v201Z"/>
  <g>
    <line class="cls-1" x1="653.1" y1="140.3333" x2="677.8" y2="165.5332"/>
    <path d="M677.8,170.0332c-1.2,0-2.3-.5-3.2-1.4l-24.7-25.2c-1.7-1.8-1.7-4.6,.1-6.4,1.8-1.7,4.6-1.7,6.4,.1l24.7,25.2c1.7,1.8,1.7,4.6-.1,6.4-.9,.9-2.1,1.3-3.2,1.3Z"/>
  </g>
  <g>
    <line class="cls-1" x1="683.2" y1="140.3333" x2="729.6" y2="187.3333"/>
    <path d="M729.6,191.8333c-1.2,0-2.3-.4-3.2-1.3l-46.4-46.9c-1.7-1.8-1.7-4.6,0-6.4,1.8-1.7,4.6-1.7,6.4,0l46.4,46.9c1.7,1.8,1.7,4.6,0,6.4-.9,.8-2.1,1.3-3.2,1.3Z"/>
  </g>
  <path d="M624.5,653.5333c-2.5,0-4.5-2-4.5-4.5V107.0332c0-2.5,2-4.5,4.5-4.5s4.5,2,4.5,4.5V648.9333c0,2.6-2,4.6-4.5,4.6Z"/>
  <path d="M252.9829,73.6665H103.6494c-1.0288,0-2.0269-.3525-2.8276-.999L60.7895,40.334c-1.0576-.8545-1.6724-2.1411-1.6724-3.501s.6147-2.6465,1.6724-3.501L100.8217,.999c.8008-.6465,1.7988-.999,2.8276-.999H252.9829c2.4854,0,4.5,2.0146,4.5,4.5V69.1665c0,2.4854-2.0146,4.5-4.5,4.5Zm-147.7432-9H248.4829V9H105.2397l-34.4609,27.833,34.4609,27.8335Z"/>
</svg>