<svg id="Layer_1" data-name="Layer 1" xmlns="http://www.w3.org/2000/svg" viewBox="0 0 28.06 33.44"><defs><style>.cls-1{fill:none;stroke:#121212;stroke-linecap:round;stroke-linejoin:round;stroke-width:0.5px;}</style></defs><path class="cls-1" d="M19,2.5" transform="translate(-4.93 -2.25)"/><line class="cls-1" x1="2.81" y1="18.32" x2="18.94" y2="18.32"/><line class="cls-1" x1="2.81" y1="16.59" x2="18.94" y2="16.59"/><line class="cls-1" x1="4.58" y1="14.87" x2="18.94" y2="14.87"/><line class="cls-1" x1="2.81" y1="11.41" x2="13.65" y2="11.41"/><line class="cls-1" x1="4.58" y1="9.68" x2="18.94" y2="9.68"/><line class="cls-1" x1="2.81" y1="20.05" x2="18.53" y2="20.05"/><line class="cls-1" x1="2.81" y1="21.78" x2="17.71" y2="21.78"/><line class="cls-1" x1="2.81" y1="28.7" x2="10.12" y2="28.7"/><line class="cls-1" x1="2.81" y1="26.97" x2="18.94" y2="26.97"/><path class="cls-1" d="M26.58,32.16a3.32,3.32,0,0,1-3.35,3.28H8.53a3.32,3.32,0,0,1-3.35-3.28V11.67A3.33,3.33,0,0,1,8.53,8.39h14.7a3.33,3.33,0,0,1,3.35,3.28Z" transform="translate(-4.93 -2.25)"/><line class="cls-1" x1="4.58" y1="25.24" x2="18.94" y2="25.24"/><path class="cls-1" d="M7.45,8.57a3.35,3.35,0,0,1,3.14-2.14H25.28a3.32,3.32,0,0,1,3.35,3.28V30.2a3.3,3.3,0,0,1-2.26,3.1" transform="translate(-4.93 -2.25)"/><path class="cls-1" d="M9.51,6.6a3.34,3.34,0,0,1,3.13-2.14h14.7a3.33,3.33,0,0,1,3.35,3.29V28.23a3.29,3.29,0,0,1-2.27,3.11" transform="translate(-4.93 -2.25)"/><path class="cls-1" d="M11.56,4.64A3.34,3.34,0,0,1,14.7,2.5H29.39a3.33,3.33,0,0,1,3.35,3.28V26.27a3.32,3.32,0,0,1-2.26,3.11" transform="translate(-4.93 -2.25)"/></svg>