<svg id="Layer_1" data-name="Layer 1" xmlns="http://www.w3.org/2000/svg" viewBox="0 0 28.13 33.44"><defs><style>.cls-1{fill:none;stroke:#121212;stroke-linecap:round;stroke-linejoin:round;stroke-width:0.5px;}</style></defs><path class="cls-1" d="M19,2.5" transform="translate(-4.86 -2.25)"/><line class="cls-1" x1="3.31" y1="15.08" x2="22.09" y2="15.08"/><line class="cls-1" x1="3.31" y1="12.98" x2="22.09" y2="12.98"/><line class="cls-1" x1="5.37" y1="10.87" x2="22.09" y2="10.87"/><line class="cls-1" x1="3.31" y1="6.66" x2="15.93" y2="6.66"/><line class="cls-1" x1="5.37" y1="4.56" x2="22.09" y2="4.56"/><line class="cls-1" x1="3.31" y1="17.19" x2="21.61" y2="17.19"/><line class="cls-1" x1="3.31" y1="19.3" x2="20.65" y2="19.3"/><line class="cls-1" x1="3.31" y1="27.72" x2="11.82" y2="27.72"/><line class="cls-1" x1="3.31" y1="25.61" x2="22.09" y2="25.61"/><polygon class="cls-1" points="20.46 23.02 19.41 23.14 19.28 25.61 21.05 23.92 20.46 23.02"/><polygon class="cls-1" points="25.82 11.23 25 10.84 19.41 23.14 20.46 23.02 21.05 23.92 26.64 11.62 25.82 11.23"/><polygon class="cls-1" points="25 10.84 25.46 9.82 27.1 10.61 26.64 11.62 25 10.84"/><polygon class="cls-1" points="27.1 10.61 25.46 9.82 26.24 8.11 27.88 8.89 27.1 10.61"/><path class="cls-1" d="M30,17.15V31.44a4,4,0,0,1-3.9,4H9a4,4,0,0,1-3.9-4V6.5A4,4,0,0,1,9,2.5h17.1a4,4,0,0,1,3.9,4v6.26" transform="translate(-4.86 -2.25)"/><line class="cls-1" x1="21.23" y1="23.51" x2="22.09" y2="23.51"/><line class="cls-1" x1="5.37" y1="23.51" x2="19.39" y2="23.51"/></svg>