<svg id="Layer_1" data-name="Layer 1" xmlns="http://www.w3.org/2000/svg" viewBox="0 0 28.06 33.59"><defs><style>.cls-1{fill:none;stroke:#121212;stroke-linecap:round;stroke-linejoin:round;stroke-width:0.5px;}</style></defs><path class="cls-1" d="M12.26,13.81a13,13,0,0,0-4.43,4.58,12.8,12.8,0,0,0-1.67,6.33" transform="translate(-4.93 -5.16)"/><path class="cls-1" d="M21.4,37.29a12.82,12.82,0,0,0,9.67-8.38" transform="translate(-4.93 -5.16)"/><polyline class="cls-1" points="9.07 27.28 12.73 20.34 14.31 21.21 10.32 28.22"/><path class="cls-1" d="M14.47,32.64a2.3,2.3,0,0,0-2.07-.12h0a4.92,4.92,0,0,1-1.26.35A4.57,4.57,0,0,1,9,32.7a4.67,4.67,0,0,1-2.38-1.82,13.82,13.82,0,0,0,5.5,5.81h0a2.34,2.34,0,1,0,2.34-4Z" transform="translate(-4.93 -5.16)"/><path class="cls-1" d="M12.57,34.53a8.16,8.16,0,0,1-3.51-.24" transform="translate(-4.93 -5.16)"/><path class="cls-1" d="M14,35.83a7.84,7.84,0,0,1-3,.1" transform="translate(-4.93 -5.16)"/><polygon class="cls-1" points="14.31 21.21 24.93 0.25 12.73 20.34 14.31 21.21"/><path class="cls-1" d="M25,13.42a12.81,12.81,0,0,0-6-1.5,13.19,13.19,0,0,0-2.36.21" transform="translate(-4.93 -5.16)"/><path class="cls-1" d="M28.59,16.28a12.93,12.93,0,0,0-3-2.5" transform="translate(-4.93 -5.16)"/><path class="cls-1" d="M25.5,12.59A13.78,13.78,0,1,0,19,38.5a13.89,13.89,0,0,0,2.6-.24A13.78,13.78,0,0,0,28.9,15.18a13.5,13.5,0,0,0-2.83-2.27" transform="translate(-4.93 -5.16)"/><path class="cls-1" d="M15.23,30.11a6.56,6.56,0,0,1-2-8.64" transform="translate(-4.93 -5.16)"/><path class="cls-1" d="M25.52,24.72A6.56,6.56,0,0,1,19,31.28" transform="translate(-4.93 -5.16)"/><path class="cls-1" d="M22.78,19.39A6.69,6.69,0,0,1,24.34,21" transform="translate(-4.93 -5.16)"/><path class="cls-1" d="M14.52,19.9a6.59,6.59,0,0,1,7.22-1.12" transform="translate(-4.93 -5.16)"/><path class="cls-1" d="M15.78,29.05a5.37,5.37,0,0,1,5.27-9.28" transform="translate(-4.93 -5.16)"/><path class="cls-1" d="M22.25,20.47A5.38,5.38,0,0,1,19,30.1a5.52,5.52,0,0,1-1.68-.27" transform="translate(-4.93 -5.16)"/><path class="cls-1" d="M23.16,24.72A4.2,4.2,0,1,1,19,20.53a4.1,4.1,0,0,1,1.54.29,4.18,4.18,0,0,1,2.66,3.9Z" transform="translate(-4.93 -5.16)"/></svg>