<?xml version="1.0" encoding="utf-8"?>
<!-- Generator: Adobe Illustrator 25.2.1, SVG Export Plug-In . SVG Version: 6.00 Build 0)  -->
<svg version="1.1" id="Layer_1" xmlns="http://www.w3.org/2000/svg" xmlns:xlink="http://www.w3.org/1999/xlink" x="0px" y="0px"
	 viewBox="0 0 28.1 33.6" style="enable-background:new 0 0 28.1 33.6;" xml:space="preserve">
<style type="text/css">
	.st0{fill:none;stroke:#121212;stroke-width:0.5;stroke-linecap:round;stroke-linejoin:round;}
</style>
<path class="st0" d="M7.3,8.7C5.5,9.8,4,11.4,2.9,13.2c-1.1,1.9-1.7,4.1-1.7,6.3"/>
<path class="st0" d="M16.5,32.1c4.5-0.9,8.2-4.1,9.7-8.4"/>
<polyline class="st0" points="9.1,27.3 12.7,20.3 14.3,21.2 10.4,28.1 "/>
<path class="st0" d="M9.5,27.5c-0.6-0.4-1.4-0.4-2.1-0.1l0,0c-0.4,0.2-0.8,0.3-1.3,0.3c-0.7,0.1-1.5,0.1-2.1-0.2
	c-1-0.3-1.8-1-2.4-1.8c1.2,2.4,3.1,4.5,5.5,5.8l0,0c1,0.8,2.5,0.6,3.3-0.4c0.8-1,0.6-2.5-0.4-3.3C9.9,27.7,9.7,27.6,9.5,27.5
	L9.5,27.5z"/>
<path class="st0" d="M6.4,29.3c-0.7,0.1-1.4,0.1-2.1-0.2"/>
<path class="st0" d="M7.2,30.7c-0.4,0-0.8,0-1.2,0"/>
<polygon class="st0" points="14.3,21.2 24.9,0.2 12.7,20.3 "/>
<path class="st0" d="M20.1,8.3c-1.8-1-3.9-1.5-6-1.5c-0.8,0-1.6,0.1-2.4,0.2"/>
<path class="st0" d="M23.7,11.1c-0.9-1-1.9-1.8-3-2.5"/>
<path class="st0" d="M20.6,7.4C13.9,3.8,5.5,6.3,1.9,13S0.8,28.1,7.5,31.7c2,1.1,4.3,1.7,6.6,1.6c0.9,0,1.7-0.1,2.6-0.2
	c7.5-1.5,12.3-8.7,10.9-16.2c-0.5-2.6-1.8-5-3.6-6.9c-0.8-0.9-1.8-1.6-2.8-2.3"/>
<path class="st0" d="M10.3,25c-2.8-1.9-3.7-5.7-2-8.6"/>
<path class="st0" d="M20.6,19.6c0,3.6-2.9,6.5-6.5,6.6"/>
<path class="st0" d="M17.9,14.2c0.6,0.4,1.1,1,1.6,1.6"/>
<path class="st0" d="M9.6,14.7c2-1.8,4.8-2.2,7.2-1.1"/>
<path class="st0" d="M10.9,23.9c-2.4-1.7-2.9-5.1-1.2-7.5c1.5-2,4.2-2.8,6.5-1.8"/>
<path class="st0" d="M17.3,15.3c2.3,1.8,2.8,5.2,1,7.5c-1,1.3-2.6,2.1-4.2,2.1c-0.6,0-1.1-0.1-1.7-0.3"/>
<path class="st0" d="M18.2,19.6c0,2.3-1.9,4.2-4.2,4.2s-4.2-1.9-4.2-4.2c0-2.3,1.9-4.2,4.2-4.2c0,0,0,0,0,0c0.5,0,1.1,0.1,1.5,0.3
	C17.2,16.3,18.3,17.8,18.2,19.6L18.2,19.6z"/>
</svg>
