<svg id="Layer_1" data-name="Layer 1" xmlns="http://www.w3.org/2000/svg" viewBox="0 0 28.06 33.59"><defs><style>.cls-1{fill:none;stroke:#121212;stroke-linecap:round;stroke-linejoin:round;stroke-width:0.5px;}</style></defs><path class="cls-1" d="M32.74,10.51a5.07,5.07,0,0,1-.45,2.1l-4.65,8-4.65-8a5.1,5.1,0,1,1,9.75-2.1Z" transform="translate(-4.93 -5.16)"/><circle class="cls-1" cx="22.71" cy="5.31" r="3.17"/><circle class="cls-1" cx="22.71" cy="5.31" r="1.92"/><path class="cls-1" d="M30,16.51a13.76,13.76,0,1,1-7.49-5.1" transform="translate(-4.93 -5.16)"/><polyline class="cls-1" points="1.7 13.41 1.07 19.24 3.38 22.61 6.9 24.74 7.07 26.9 9.05 28.34 10.67 31.72 13.02 33.3 11.38 31.61 12.19 29.8 13.57 27.95 14.03 26.45 11.63 25.33 9.59 23.72 5.86 23.61 4.69 21.51 3.96 21.91 3.48 19.8 4.86 19.72 5.84 20.74 5.84 19.45 6.63 18.43 8.32 15.84 10.65 13.95 9.8 11.47 8.07 10.68 6.55 13.9 5.34 11.82 8.92 8.78 8.08 7.13"/><polygon class="cls-1" points="9.84 7.23 10.92 9.13 9.38 10.9 8.21 9.99 9.57 8.68 8.78 7.86 9.84 7.23"/><polygon class="cls-1" points="12.63 11.74 13.84 9.8 15.94 8.61 15.5 6.72 14.03 5.78 12.17 6.11 12.28 7.65 11.7 9.55 12.63 11.74"/><polygon class="cls-1" points="15.94 9.57 17.32 9.57 17.61 10.4 15.94 10.15 15.94 9.57"/><polyline class="cls-1" points="21.54 13.46 20.37 16 18.96 17.34 20.88 17.82 22.67 16.38 25.19 18.09 25.98 19.55 23.76 19.68 22.58 18.26 20.63 18.36 19.25 19.65 17.61 22.53 18.82 24.76 21.61 24.76 21.57 27.43 19.36 30.97 23.65 28.18 26.15 24.09 25.63 20.22 26.42 23.34 27.21 21.7 26.97 19.98 27.75 20.89"/></svg>