<?xml version="1.0" encoding="utf-8"?>
<!-- Generator: Adobe Illustrator 26.0.3, SVG Export Plug-In . SVG Version: 6.00 Build 0)  -->
<svg version="1.1" xmlns="http://www.w3.org/2000/svg" xmlns:xlink="http://www.w3.org/1999/xlink" x="0px" y="0px"
	 viewBox="0 0 2000 2000" style="enable-background:new 0 0 2000 2000;" xml:space="preserve">
<style type="text/css">
	.st0{display:none;}
	.st1{display:inline;opacity:0.38;}
	.st2{opacity:0.38;}
	.st3{fill:#B7B7B7;fill-opacity:0.25;}
	.st4{fill:none;stroke:#000000;stroke-width:9;stroke-linecap:round;stroke-linejoin:round;stroke-miterlimit:10;}
	.st5{stroke:#000000;stroke-width:9;stroke-linecap:round;stroke-linejoin:round;stroke-miterlimit:10;}
</style>
<g id="Layer_1" class="st0">
	<g id="busstopsketch.psd_00000165937701002580692260000000120905039705320380_" class="st1">
		<defs>
			<rect id="SVGID_1_" x="0" y="0" class="st2" width="2000" height="2000"/>
		</defs>
		<clipPath id="SVGID_00000076591166644270976680000000545510507655538819_">
			<use xlink:href="#SVGID_1_"  style="overflow:visible;"/>
		</clipPath>
		
			<image style="overflow:visible;clip-path:url(#SVGID_00000076591166644270976680000000545510507655538819_);" width="2000" height="2000" id="Background" xlink:href="4A77A531.jpg" >
		</image>
		<g style="opacity:0.2118;clip-path:url(#SVGID_00000076591166644270976680000000545510507655538819_);">
			
				<image style="overflow:visible;" width="1808" height="1059" id="Layer_1_00000104673994230416525660000011447252241075094678_" xlink:href="4A77A533.png"  transform="matrix(1 0 0 1 68 571)">
			</image>
		</g>
		<g style="clip-path:url(#SVGID_00000076591166644270976680000000545510507655538819_);">
			
				<image style="overflow:visible;" width="1125" height="773" id="Layer_2_00000091009895889696764090000015618019443129544619_" xlink:href="4A77A531.png"  transform="matrix(1 0 0 1 408 739)">
			</image>
		</g>
		<g style="clip-path:url(#SVGID_00000076591166644270976680000000545510507655538819_);">
			
				<image style="overflow:visible;" width="796" height="666" id="Layer_3" xlink:href="4A77A537.png"  transform="matrix(1 0 0 1 554 872)">
			</image>
		</g>
	</g>
</g>
<g id="Layer_2">
	<rect x="931.7" y="971.1" class="st3" width="362.3" height="419.9"/>
	<line class="st4" x1="483" y1="935" x2="483" y2="1513"/>
	<line class="st4" x1="311.7" y1="1513" x2="1569" y2="1513"/>
	<line class="st4" x1="1634.3" y1="1513" x2="1722.3" y2="1513"/>
	<line class="st4" x1="991" y1="1461" x2="991" y2="1513"/>
	<line class="st4" x1="1294" y1="1513" x2="1294" y2="971.1"/>
	<path class="st4" d="M954,1443v-25h340v43H972C962.1,1461,954,1452.9,954,1443z"/>
	<line class="st4" x1="1317.7" y1="953" x2="1317.7" y2="1513"/>
	<rect x="652.3" y="1000" class="st4" width="44.7" height="479"/>
	<line class="st4" x1="652.3" y1="1479" x2="652.3" y2="1513"/>
	<line class="st4" x1="697" y1="1479" x2="697" y2="1513"/>
	<line class="st4" x1="1154.3" y1="1461" x2="1154.3" y2="1513"/>
	<line class="st4" x1="697" y1="1000" x2="697" y2="953"/>
	<line class="st4" x1="652.3" y1="1000" x2="652.3" y2="953"/>
	<rect x="931.7" y="1181" class="st4" width="362.3" height="210"/>
	<polygon class="st5" points="1389,1496 1387,1505.2 1527,1505.2 1525,1496 	"/>
	<line class="st4" x1="1389" y1="1308.7" x2="1525" y2="1308.7"/>
	<rect x="596.3" y="917" class="st4" width="781.5" height="18"/>
	<path class="st4" d="M1355.1,971.1c0-12.7,13.3-29.7,22.7-36.1H596.3c9.4,6.3,22.7,23.3,22.7,36.1H1355.1z"/>
	<path class="st4" d="M1373,1277.7c0,0,13.9,22.5,16,31c11.1,45.5,0,187.3,0,187.3h136c0,0-11.1-141.8,0-187.3c2.1-8.5,16-31,16-31
		H1373z"/>
	<line class="st5" x1="960.3" y1="1214.3" x2="985" y2="1239.5"/>
	<line class="st5" x1="990.4" y1="1214.3" x2="1036.8" y2="1261.2"/>
	<rect x="931.7" y="971.1" class="st4" width="362.3" height="210"/>
	<line class="st5" x1="960.3" y1="1004.4" x2="985" y2="1029.5"/>
	<line class="st5" x1="990.4" y1="1004.4" x2="1036.8" y2="1051.3"/>
	<line class="st4" x1="931.7" y1="971.1" x2="931.7" y2="1513"/>
</g>
</svg>
