<?xml version="1.0" encoding="utf-8"?>
<!-- Generator: Adobe Illustrator 26.0.3, SVG Export Plug-In . SVG Version: 6.00 Build 0)  -->
<svg version="1.1" id="Layer_2" xmlns="http://www.w3.org/2000/svg" xmlns:xlink="http://www.w3.org/1999/xlink" x="0px" y="0px"
	 viewBox="0 0 1425 615.2" style="enable-background:new 0 0 1425 615.2;" xml:space="preserve">
<style type="text/css">
	.st0{fill:#B7B7B7;fill-opacity:0.25;}
</style>
<rect x="627.2" y="68.7" class="st0" width="362.3" height="419.9"/>
<path d="M178.5,615.2c-2.5,0-4.5-2-4.5-4.5v-578c0-2.5,2-4.5,4.5-4.5s4.5,2,4.5,4.5v578C183,613.2,181,615.2,178.5,615.2z"/>
<path d="M1264.5,615.2H7.2c-2.5,0-4.5-2-4.5-4.5s2-4.5,4.5-4.5h1257.3c2.5,0,4.5,2,4.5,4.5S1267,615.2,1264.5,615.2z"/>
<path d="M1417.8,615.2h-88c-2.5,0-4.5-2-4.5-4.5s2-4.5,4.5-4.5h88c2.5,0,4.5,2,4.5,4.5S1420.3,615.2,1417.8,615.2z"/>
<path d="M686.5,615.2c-2.5,0-4.5-2-4.5-4.5v-52c0-2.5,2-4.5,4.5-4.5s4.5,2,4.5,4.5v52C691,613.2,689,615.2,686.5,615.2z"/>
<path d="M989.5,615.2c-2.5,0-4.5-2-4.5-4.5V68.7c0-2.5,2-4.5,4.5-4.5s4.5,2,4.5,4.5v541.9C994,613.2,992,615.2,989.5,615.2z"/>
<path d="M989.5,563.2h-322c-12.4,0-22.5-10.1-22.5-22.5v-25c0-2.5,2-4.5,4.5-4.5h340c2.5,0,4.5,2,4.5,4.5v43
	C994,561.2,992,563.2,989.5,563.2z M654,520.2v20.5c0,7.4,6.1,13.5,13.5,13.5H985v-34H654z"/>
<path d="M1013.2,615.2c-2.5,0-4.5-2-4.5-4.5v-560c0-2.5,2-4.5,4.5-4.5s4.5,2,4.5,4.5v560C1017.7,613.2,1015.7,615.2,1013.2,615.2z"
	/>
<path d="M392.5,581.2h-44.7c-2.5,0-4.5-2-4.5-4.5v-479c0-2.5,2-4.5,4.5-4.5h44.7c2.5,0,4.5,2,4.5,4.5v479
	C397,579.2,395,581.2,392.5,581.2z M352.3,572.2H388v-470h-35.7V572.2z"/>
<path d="M347.8,615.2c-2.5,0-4.5-2-4.5-4.5v-34c0-2.5,2-4.5,4.5-4.5s4.5,2,4.5,4.5v34C352.3,613.2,350.3,615.2,347.8,615.2z"/>
<path d="M392.5,615.2c-2.5,0-4.5-2-4.5-4.5v-34c0-2.5,2-4.5,4.5-4.5s4.5,2,4.5,4.5v34C397,613.2,395,615.2,392.5,615.2z"/>
<path d="M849.8,615.2c-2.5,0-4.5-2-4.5-4.5v-52c0-2.5,2-4.5,4.5-4.5s4.5,2,4.5,4.5v52C854.3,613.2,852.3,615.2,849.8,615.2z"/>
<path d="M392.5,102.2c-2.5,0-4.5-2-4.5-4.5v-47c0-2.5,2-4.5,4.5-4.5s4.5,2,4.5,4.5v47C397,100.2,395,102.2,392.5,102.2z"/>
<path d="M347.8,102.2c-2.5,0-4.5-2-4.5-4.5v-47c0-2.5,2-4.5,4.5-4.5s4.5,2,4.5,4.5v47C352.3,100.2,350.3,102.2,347.8,102.2z"/>
<path d="M989.5,493.2H627.2c-2.5,0-4.5-2-4.5-4.5v-210c0-2.5,2-4.5,4.5-4.5h362.3c2.5,0,4.5,2,4.5,4.5v210
	C994,491.2,992,493.2,989.5,493.2z M631.7,484.2H985v-201H631.7V484.2z"/>
<g>
	<polygon points="1084.5,593.7 1082.5,602.9 1222.5,602.9 1220.5,593.7 	"/>
	<path d="M1222.5,607.4h-140c-1.4,0-2.6-0.6-3.5-1.7c-0.9-1.1-1.2-2.4-0.9-3.8l2-9.2c0.4-2.1,2.3-3.5,4.4-3.5h136
		c2.1,0,3.9,1.5,4.4,3.5l2,9.2c0.3,1.3,0,2.7-0.9,3.8C1225.2,606.8,1223.9,607.4,1222.5,607.4z M1088.1,598.4h128.8l0-0.2h-128.7
		L1088.1,598.4z"/>
</g>
<path d="M1220.5,410.8h-136c-2.5,0-4.5-2-4.5-4.5s2-4.5,4.5-4.5h136c2.5,0,4.5,2,4.5,4.5S1223,410.8,1220.5,410.8z"/>
<path d="M1073.3,37.2H291.8c-2.5,0-4.5-2-4.5-4.5l0-18c0-1.2,0.5-2.3,1.3-3.2c0.8-0.8,2-1.3,3.2-1.3h781.5c2.5,0,4.5,2,4.5,4.5v18
	C1077.8,35.2,1075.8,37.2,1073.3,37.2z M296.3,28.2h772.5v-9H296.3L296.3,28.2z"/>
<path d="M1050.6,73.2h-736c-2.5,0-4.5-2-4.5-4.5c0-11.1-12.5-26.8-20.7-32.3c-1.6-1.1-2.4-3.2-1.8-5c0.6-1.9,2.3-3.2,4.3-3.2h781.5
	c2,0,3.7,1.3,4.3,3.2c0.6,1.9-0.2,3.9-1.8,5c-8.3,5.5-20.7,21.3-20.7,32.3C1055.1,71.2,1053.1,73.2,1050.6,73.2z M318.7,64.2h727.8
	c1.7-9.5,8.2-19.6,15-27.1H303.7C310.5,44.6,317,54.7,318.7,64.2z"/>
<path d="M1220.5,598.2h-136c-1.3,0-2.5-0.5-3.3-1.4c-0.9-0.9-1.3-2.2-1.2-3.4c0.1-1.4,10.9-141.6,0.1-185.9
	c-1.5-6.4-11.7-23.6-15.5-29.7c-0.9-1.4-0.9-3.1-0.1-4.6c0.8-1.4,2.3-2.3,3.9-2.3h168c1.6,0,3.1,0.9,3.9,2.3
	c0.8,1.4,0.8,3.2-0.1,4.6c-3.8,6.1-13.9,23.3-15.5,29.7c-10.8,44.3,0,184.5,0.1,185.9c0.1,1.2-0.3,2.5-1.2,3.4
	C1223,597.7,1221.8,598.2,1220.5,598.2z M1089.3,589.2h126.3c-1.9-25.7-9.6-142.5,0.5-183.9c1.5-6.1,8-17.8,12.4-25.4h-152.1
	c4.4,7.6,10.9,19.3,12.4,25.4C1098.9,446.7,1091.2,563.5,1089.3,589.2z"/>
<g>
	<line x1="655.8" y1="312" x2="680.5" y2="337.2"/>
	<path d="M680.5,341.7c-1.2,0-2.3-0.5-3.2-1.4l-24.7-25.2c-1.7-1.8-1.7-4.6,0.1-6.4c1.8-1.7,4.6-1.7,6.4,0.1l24.7,25.2
		c1.7,1.8,1.7,4.6-0.1,6.4C682.8,341.3,681.6,341.7,680.5,341.7z"/>
</g>
<g>
	<line x1="685.9" y1="312" x2="732.3" y2="358.9"/>
	<path d="M732.3,363.4c-1.2,0-2.3-0.4-3.2-1.3l-46.4-46.9c-1.7-1.8-1.7-4.6,0-6.4c1.8-1.7,4.6-1.7,6.4,0l46.4,46.9
		c1.7,1.8,1.7,4.6,0,6.4C734.6,363,733.4,363.4,732.3,363.4z"/>
</g>
<path d="M989.5,283.2H627.2c-2.5,0-4.5-2-4.5-4.5v-210c0-2.5,2-4.5,4.5-4.5h362.3c2.5,0,4.5,2,4.5,4.5v210
	C994,281.2,992,283.2,989.5,283.2z M631.7,274.2H985v-201H631.7V274.2z"/>
<g>
	<line x1="655.8" y1="102" x2="680.5" y2="127.2"/>
	<path d="M680.5,131.7c-1.2,0-2.3-0.5-3.2-1.4l-24.7-25.2c-1.7-1.8-1.7-4.6,0.1-6.4c1.8-1.7,4.6-1.7,6.4,0.1l24.7,25.2
		c1.7,1.8,1.7,4.6-0.1,6.4C682.8,131.3,681.6,131.7,680.5,131.7z"/>
</g>
<g>
	<line x1="685.9" y1="102" x2="732.3" y2="149"/>
	<path d="M732.3,153.5c-1.2,0-2.3-0.4-3.2-1.3l-46.4-46.9c-1.7-1.8-1.7-4.6,0-6.4c1.8-1.7,4.6-1.7,6.4,0l46.4,46.9
		c1.7,1.8,1.7,4.6,0,6.4C734.6,153,733.4,153.5,732.3,153.5z"/>
</g>
<path d="M627.2,615.2c-2.5,0-4.5-2-4.5-4.5V68.7c0-2.5,2-4.5,4.5-4.5s4.5,2,4.5,4.5v541.9C631.7,613.2,629.7,615.2,627.2,615.2z"/>
</svg>
