<?xml version="1.0" encoding="utf-8"?>
<!-- Generator: Adobe Illustrator 26.0.3, SVG Export Plug-In . SVG Version: 6.00 Build 0)  -->
<svg version="1.1" id="Layer_2" xmlns="http://www.w3.org/2000/svg" xmlns:xlink="http://www.w3.org/1999/xlink" x="0px" y="0px"
	 viewBox="0 0 1419.3 596" style="enable-background:new 0 0 1419.3 596;" xml:space="preserve">
<style type="text/css">
	.st0{fill:#B7B7B7;fill-opacity:0.25;}
	.st1{fill:none;stroke:#000000;stroke-width:9;stroke-linecap:round;stroke-linejoin:round;stroke-miterlimit:10;}
	.st2{stroke:#000000;stroke-width:9;stroke-linecap:round;stroke-linejoin:round;stroke-miterlimit:10;}
</style>
<rect x="628.7" y="54" class="st0" width="362.3" height="419.9"/>
<line class="st1" x1="180" y1="18" x2="180" y2="596"/>
<line class="st1" x1="8.7" y1="596" x2="1266" y2="596"/>
<line class="st1" x1="1331.3" y1="596" x2="1419.3" y2="596"/>
<line class="st1" x1="688" y1="544" x2="688" y2="596"/>
<line class="st1" x1="991" y1="596" x2="991" y2="54"/>
<path class="st1" d="M651,526v-25h340v43H669C659.1,544,651,535.9,651,526z"/>
<line class="st1" x1="1014.7" y1="36" x2="1014.7" y2="596"/>
<rect x="349.3" y="83" class="st1" width="44.7" height="479"/>
<line class="st1" x1="349.3" y1="562" x2="349.3" y2="596"/>
<line class="st1" x1="394" y1="562" x2="394" y2="596"/>
<line class="st1" x1="851.3" y1="544" x2="851.3" y2="596"/>
<line class="st1" x1="394" y1="83" x2="394" y2="36"/>
<line class="st1" x1="349.3" y1="83" x2="349.3" y2="36"/>
<rect x="628.7" y="264" class="st1" width="362.3" height="210"/>
<polygon class="st2" points="1086,579 1084,588.2 1224,588.2 1222,579 "/>
<line class="st1" x1="1086" y1="391.6" x2="1222" y2="391.6"/>
<rect x="293.3" y="0" class="st1" width="781.5" height="18"/>
<path class="st1" d="M1052.1,54c0-12.7,13.3-29.7,22.7-36.1l-781.5,0c9.4,6.3,22.7,23.3,22.7,36.1L1052.1,54z"/>
<path class="st1" d="M1070,360.7c0,0,13.9,22.5,16,31c11.1,45.5,0,187.3,0,187.3h136c0,0-11.1-141.8,0-187.3c2.1-8.5,16-31,16-31
	H1070z"/>
<line class="st2" x1="657.3" y1="297.3" x2="682" y2="322.5"/>
<line class="st2" x1="687.4" y1="297.3" x2="733.8" y2="344.2"/>
<rect x="628.7" y="54" class="st1" width="362.3" height="210"/>
<line class="st2" x1="657.3" y1="87.3" x2="682" y2="112.5"/>
<line class="st2" x1="687.4" y1="87.3" x2="733.8" y2="134.3"/>
<line class="st1" x1="628.7" y1="54" x2="628.7" y2="596"/>
</svg>
